# xmcd
#
# Track frame offsets: 
#        150
#        17243
#        31742
#        50119
#        63252
#        78239
#        85378
#        96786
#        109829
#        135995
#        146372
#        162594
#        171726
#        182963
#        203617
#        214926
#        227112
#        237575
#        259812
#        275002
#        289301
#        303738
#        320588
#
# Disc length: 4487 seconds
#
# Revision: 0
# Processed by: cddbd v1.5.2PL0 Copyright (c) Steve Scherf et al.
# Submitted via: ExactAudioCopyFreeDBPlugin 1.0
#
DISCID=60118517
DTITLE=X-Men Klan and Roey Marquis - X Tape
DYEAR=2010
DGENRE=Rap
TTITLE0=Introx (Ruffkidd and Absztrakkt)
TTITLE1=Schlüssel unserer Evolution (Questgott, Ruffkidd, Sirviva and Ab
TTITLE1=sztrakkt)
TTITLE2=Das X kommt! (Ruffkidd, Sirviva, Phantomas and Questgott)
TTITLE3=1000 Masken (Defekt36 and Absztrakkt)
TTITLE4=Du kennst das (Questgott and Absztrakkt)
TTITLE5=Der Beste (Questgott)
TTITLE6=Biznessnews (Sirviva, Ruffkidd and Phantomas)
TTITLE7=Stay True 2 The X (Absztrakkt and Questgott)
TTITLE8=Niemand (Defekt36, Absztrakkt, Ruffkidd and Questgott)
TTITLE9=Der Colonel ist aus Eisen (Absztrakkt and Sirviva)
TTITLE10=Jeder ist ein Teil (Questgott, Absztrakkt and Ruffkidd)
TTITLE11=Banger (Questgott and Sirviva)
TTITLE12=Underground Kingdom (Cuts DJ Eule)
TTITLE13=X Is Over Your Eyes (Phantomas, Ruffkidd and Sirviva)
TTITLE14=Mein Slang ist Pro (Absztrakkt and Sirviva)
TTITLE15=Missgeöh (Ruffkidd, Sirviva and Questgott)
TTITLE16=Die Spitze der Pyramide (Absztrakkt and Questgott)
TTITLE17=Xpression (Phantomas, Ruffkidd, Absztrakkt and Defekt36)
TTITLE18=Zuflucht (Absztrakkt and Defekt36)
TTITLE19=Headshot (Sirviva and Ruffkidd)
TTITLE20=Original Badass (Defekt36 and Absztrakkt)
TTITLE21=No One Is Save (Questgott, Ruffkidd, Sirviva and Defekt36)
TTITLE22=More N More (Outrox) (Absztrakkt and Ruffkidd)
EXTD=
EXTT0=
EXTT1=
EXTT2=
EXTT3=
EXTT4=
EXTT5=
EXTT6=
EXTT7=
EXTT8=
EXTT9=
EXTT10=
EXTT11=
EXTT12=
EXTT13=
EXTT14=
EXTT15=
EXTT16=
EXTT17=
EXTT18=
EXTT19=
EXTT20=
EXTT21=
EXTT22=
PLAYORDER=
